Wo shi shei (1998).aka Who Am I?

Action | Sci-Fi | Comedy | Adventure | Jackie Chan

user comments:
  http://www.imdb.com/title/tt0127357/usercomments


A secret agent loses his memory after falling from a crashing helicopter. He is then chased by a number of other agency operatives, but he has no idea why.


Subtitles:
English, Czech, Finnish, Greek, Hungarian, Romanian, Spanish, Swedish

Format                           : Matroska
File size                        : 1.46 GiB
Duration                         : 1h 43mn
Overall bit rate                 : 2 021 Kbps

Video:
Format/Info                      : AVC(Advanced Video Codec)
Duration                         : 1h 43mn
Nominal bit rate                 : 1 571 Kbps
Display aspect ratio             : 1.024 x 408 (2.510)
Frame rate                       : 25.000 fps
Stream size                      : 1.11 GiB (76%)
Writing library                  : x264 core 65

Audio (English):
Format                           : AC-3
Bit rate mode                    : Constant
Bit rate                         : 448 Kbps
Channel(s)                       : 6 channels
Channel positions                : Front: L C R, Surround: L R, LFE
Sampling rate                    : 48.0 KHz
Stream size                      : 332 MiB (22%)
